:SAMPLES-PER-SECOND 30
:FRAME-RANGE 1-1086
:FULLY-SPECIFIED
:DEGREES
985
root  15.2514 39.0648 -135.624 5.32573 -67.6826 -0.489807
RightUpLeg  -15.5563 -26.5486 -1.25423
RightLeg  23.0509 -17.0996 -6.40721
RightFoot  -8.73782 -0.210711 6.64891
RightToes  -5.8209e-011 0 -3.6325e-017
Spine  20.9498 0.243532 9.94262
Spine1  -3.26186 2.03133 -2.64437
HEad  -20.3912 10.3542 -15.5031
LeftShoulder1  1.83631 -1.87001 -28.0861
LeftArm  17.4044 -1.14176 -32.4021
LeftForeArm  -2.98481 -10.4969 -15.3816
LeftHand  0.172554 -1.25314 -2.91139
RightShoulder  11.3286 18.7768 44.3362
RightArm  34.8619 3.01589 25.493
RightForeArm  -3.03372 30.247 6.76501
RightHand  0.0958033 3.07731 1.08436
LeftUpLeg  -26.9481 23.4114 3.95047
LeftLeg  28.5779 1.2992 1.10194
LeftFoot  -3.1668 0.42965 -5.74467
LeftToes  5.72949e-011 5.22586e-011 2.45399e-011
986
root  15.5668 39.1138 -135.173 5.2995 -62.4749 -0.587448
RightUpLeg  -14.1294 -28.7778 -2.90288
RightLeg  22.5849 -19.9474 -6.39225
RightFoot  -7.87668 -0.278499 7.42461
RightToes  -5.8209e-011 0 -3.6325e-017
Spine  19.4754 0.555155 9.16588
Spine1  -3.70962 2.05919 -2.11385
HEad  -18.2672 9.13306 -14.7508
LeftShoulder1  1.7787 -1.60973 -28.7111
LeftArm  19.1569 2.14375 -30.9885
LeftForeArm  -4.01795 -11.2533 -15.0572
LeftHand  0.195216 -1.32853 -3.2644
RightShoulder  11.2196 18.5662 44.3318
RightArm  33.5189 2.22639 25.3109
RightForeArm  0.294713 33.5023 7.43715
RightHand  0.200845 3.53062 2.36325
LeftUpLeg  -24.5535 24.4904 6.8414
LeftLeg  26.9882 2.34577 1.62887
LeftFoot  -2.93921 0.414769 -5.40497
LeftToes  5.72949e-011 5.22586e-011 2.45399e-011
987
root  15.9349 39.2146 -134.632 5.03947 -57.189 -0.142822
RightUpLeg  -12.4275 -30.5243 -4.9443
RightLeg  21.493 -23.3376 -6.36898
RightFoot  -6.41327 -0.390576 8.04741
RightToes  -5.8209e-011 0 -3.6325e-017
Spine  18.2714 0.532827 8.31637
Spine1  -4.02096 1.95411 -2.58047
HEad  -16.9853 8.41366 -14.6659
LeftShoulder1  1.63123 -1.16704 -28.8487
LeftArm  22.5308 4.72283 -29.5046
LeftForeArm  -7.29377 -11.9275 -14.9506
LeftHand  0.252589 -1.65575 -4.02976
RightShoulder  10.8386 17.8928 44.177
RightArm  31.8035 1.8353 25.5754
RightForeArm  1.6523 36.6096 8.24063
RightHand  0.29578 3.4511 3.63592
LeftUpLeg  -22.7148 26.4892 8.27678
LeftLeg  23.5487 5.58149 2.98456
LeftFoot  -2.15303 0.342852 -4.10559
LeftToes  5.72949e-011 5.22586e-011 2.45399e-011
988
root  16.3631 39.2652 -133.953 5.20107 -51.9706 -0.0212097
RightUpLeg  -10.5149 -31.3954 -7.37981
RightLeg  20.684 -27.5155 -6.13246
RightFoot  -4.83371 -0.51777 8.5119
RightToes  -5.8209e-011 0 -3.6325e-017
Spine  17.0304 0.445671 8.07835
Spine1  -3.96479 1.86133 -3.19456
HEad  -16.1454 8.14682 -14.5631
LeftShoulder1  1.58414 -0.961407 -29.411
LeftArm  22.9351 7.34174 -28.1351
LeftForeArm  -8.40555 -12.1386 -14.8839
LeftHand  0.273038 -1.71143 -4.328
RightShoulder  10.4648 17.1972 44.0926
RightArm  29.7198 1.63548 25.3405
RightForeArm  2.50937 39.1867 8.98128
RightHand  0.354484 3.32163 4.48103
LeftUpLeg  -22.0283 32.03 7.9369
LeftLeg  19.4805 8.81538 3.76581
LeftFoot  -1.95349 0.337001 -3.96138
LeftToes  5.72949e-011 5.22586e-011 2.45399e-011
989
root  16.8271 39.4093 -133.169 5.28275 -46.7232 0.46579
RightUpLeg  -7.48289 -30.3975 -10.5073
RightLeg  18.1805 -33.8659 -4.80586
RightFoot  -2.40391 -0.702254 8.75879
RightToes  -5.8209e-011 0 -3.6325e-017
Spine  15.956 0.399049 7.40837
Spine1  -3.78421 1.83415 -3.92285
HEad  -15.6588 8.07937 -14.8802
LeftShoulder1  1.51946 -0.67188 -30.3318
LeftArm  19.3152 10.065 -27.2464
LeftForeArm  -5.49313 -11.7331 -14.8328
LeftHand  0.284219 -1.89501 -4.3802
RightShoulder  10.0518 16.5388 43.7342
RightArm  27.674 1.19998 24.9201
RightForeArm  2.73007 40.838 9.50979
RightHand  0.374051 3.19495 4.82115
LeftUpLeg  -19.7248 31.8392 8.18138
LeftLeg  13.2887 17.3844 2.96801
LeftFoot  -0.221649 0.286873 -2.93389
LeftToes  5.72949e-011 5.22586e-011 2.45399e-011
990
root  17.3975 39.3924 -132.174 5.93741 -41.3147 0.485825
RightUpLeg  -4.67766 -27.8193 -13.5576
RightLeg  16.6729 -41.584 -3.67559
RightFoot  -0.121401 -0.8896 9.03008
RightToes  -5.8209e-011 0 -3.6325e-017
Spine  14.6622 0.385273 7.95395
Spine1  -3.69077 1.93852 -4.83003
HEad  -14.568 7.2192 -14.8614
LeftShoulder1  1.4723 -0.504632 -30.6752
LeftArm  17.8319 12.0184 -27.2046
LeftForeArm  -4.95624 -11.1855 -15.0945
LeftHand  0.269434 -1.17013 -4.67845
RightShoulder  9.45831 15.5555 43.2614
RightArm  25.6709 0.426985 24.3117
RightForeArm  2.45266 41.6082 9.79104
RightHand  0.420687 3.26093 5.4038
LeftUpLeg  -18.7951 31.1413 8.13351
LeftLeg  10.6281 24.3925 0.560045
LeftFoot  2.24186 0.591429 -5.07924
LeftToes  5.72949e-011 5.22586e-011 2.45399e-011
991
root  18.0102 39.366 -131.08 6.58627 -35.8251 0.704117
RightUpLeg  -1.6542 -25.6552 -16.349
RightLeg  14.2888 -48.6721 -1.87429
RightFoot  2.30388 -0.934295 7.92853
RightToes  -5.8209e-011 0 -3.6325e-017
Spine  12.8215 0.515675 8.24622
Spine1  -2.76807 2.20208 -5.80274
HEad  -14.3034 7.05533 -14.7145
LeftShoulder1  1.43111 -0.394513 -30.6545
LeftArm  16.1881 13.5716 -27.8722
LeftForeArm  -5.00363 -10.5142 -15.4347
LeftHand  0.287329 -0.696214 -5.44061
RightShoulder  9.02158 14.8233 42.8995
RightArm  23.5482 -1.32374 22.7174
RightForeArm  1.55165 42.777 10.264
RightHand  0.465137 2.92754 6.26625
LeftUpLeg  -18.5786 29.788 6.78797
LeftLeg  8.39003 23.3969 -3.14176
LeftFoot  5.39566 0.813026 -5.74769
LeftToes  5.72949e-011 5.22586e-011 2.45399e-011
992
root  18.6123 39.3061 -129.989 6.68669 -30.2825 1.57387
RightUpLeg  1.56858 -23.4893 -19.0138
RightLeg  10.3697 -50.3174 1.25701
RightFoot  2.41741 -1.16298 9.75469
RightToes  -5.8209e-011 0 -3.6325e-017
Spine  12.2099 0.893378 6.88198
Spine1  -2.97338 2.37391 -5.61545
HEad  -14.0255 5.64622 -14.1467
LeftShoulder1  1.43344 -0.39293 -30.73
LeftArm  14.4753 14.5484 -28.2929
LeftForeArm  -3.15518 -9.07205 -16.1017
LeftHand  0.302215 -0.947112 -5.47062
RightShoulder  8.45588 13.6639 42.9397
RightArm  23.8836 -1.54313 21.4849
RightForeArm  -0.451682 39.8352 9.37406
RightHand  0.521964 3.73902 6.36959
LeftUpLeg  -22.6597 35.6961 -0.0628221
LeftLeg  11.1468 12.4913 -2.59345
LeftFoot  3.02512 0.598039 -4.88993
LeftToes  5.72949e-011 5.22586e-011 2.45399e-011
993
root  19.1958 39.2198 -128.955 5.98607 -24.3649 2.62106
RightUpLeg  4.39766 -20.4818 -20.1394
RightLeg  6.74364 -40.6024 2.75863
RightFoot  -2.83191 -1.0265 13.4792
RightToes  -5.8209e-011 0 -3.6325e-017
Spine  12.7089 1.03694 5.50178
Spine1  -3.25398 2.42997 -5.62889
HEad  -13.1392 3.93323 -13.1506
LeftShoulder1  1.57361 -0.787763 -30.6158
LeftArm  13.5154 14.4454 -28.6543
LeftForeArm  -1.83725 -7.0934 -17.0144
LeftHand  0.331328 -1.10473 -5.84249
RightShoulder  8.03663 12.799 42.987
RightArm  24.3501 -2.61125 20.1538
RightForeArm  -1.2823 36.723 8.44684
RightHand  0.526033 4.19597 6.0832
LeftUpLeg  -24.2525 34.355 -4.69596
LeftLeg  13.5753 6.51614 -1.17787
LeftFoot  1.14421 0.315166 -2.94491
LeftToes  5.72949e-011 5.22586e-011 2.45399e-011
994
root  19.758 39.1897 -128.01 5.50986 -19.4794 2.73283
RightUpLeg  3.79338 -17.8827 -18.2774
RightLeg  9.6941 -28.682 -1.82524
RightFoot  -8.41561 -0.302829 9.59095
RightToes  -5.8209e-011 0 -3.6325e-017
Spine  12.8569 1.16705 5.44889
Spine1  -2.32081 2.75156 -6.17157
HEad  -12.7426 2.5956 -12.297
LeftShoulder1  1.57876 -0.798023 -30.6484
LeftArm  12.4449 13.2988 -28.9832
LeftForeArm  0.199549 -5.31054 -17.6218
LeftHand  0.362962 -1.24496 -6.25869
RightShoulder  7.9329 12.5644 43.0579
RightArm  26.631 -2.64256 19.5295
RightForeArm  -3.43252 31.9543 7.22789
RightHand  0.51187 4.45317 5.74047
LeftUpLeg  -24.1484 31.711 -6.68966
LeftLeg  15.2627 3.91831 -0.276392
LeftFoot  -0.368162 0.134568 -1.37824
LeftToes  5.72949e-011 5.22586e-011 2.45399e-011
